<?xml version="1.0" encoding="UTF-8"?>
<svg xmlns="http://www.w3.org/2000/svg" xmlns:xlink="http://www.w3.org/1999/xlink" width="64px" height="64px" viewBox="0 0 64 64" version="1.1">
<defs>
<clipPath id="clip1">
  <path d="M 1.660156 0 L 64 0 L 64 64 L 1.660156 64 Z M 1.660156 0 "/>
</clipPath>
<filter id="alpha" filterUnits="objectBoundingBox" x="0%" y="0%" width="100%" height="100%">
  <feColorMatrix type="matrix" in="SourceGraphic" values="0 0 0 0 1 0 0 0 0 1 0 0 0 0 1 0 0 0 1 0"/>
</filter>
<mask id="mask0">
  <g filter="url(#alpha)">
<rect x="0" y="0" width="64" height="64" style="fill:rgb(0%,0%,0%);fill-opacity:0.6;stroke:none;"/>
  </g>
</mask>
<clipPath id="clip2">
  <rect x="0" y="0" width="64" height="64"/>
</clipPath>
<g id="surface5" clip-path="url(#clip2)">
<path style=" stroke:none;fill-rule:nonzero;fill:rgb(76.862745%,76.862745%,76.862745%);fill-opacity:1;" d="M 32.679688 52.644531 C 36.976562 52.644531 40.464844 53.472656 40.464844 54.488281 C 40.464844 55.507812 36.976562 56.332031 32.679688 56.332031 C 28.386719 56.332031 24.898438 55.507812 24.898438 54.488281 C 24.898438 53.472656 28.386719 52.644531 32.679688 52.644531 Z M 32.679688 52.644531 "/>
</g>
<clipPath id="clip3">
  <path d="M 1.660156 17 L 15 17 L 15 31 L 1.660156 31 Z M 1.660156 17 "/>
</clipPath>
<linearGradient id="linear0" gradientUnits="userSpaceOnUse" x1="-166" y1="148" x2="86" y2="146" gradientTransform="matrix(0.0592593,0,0,0.0592593,33.659259,28.756532)">
<stop offset="0" style="stop-color:rgb(92.156863%,95.686275%,98.823529%);stop-opacity:1;"/>
<stop offset="0.65" style="stop-color:rgb(86.666667%,88.235294%,89.803922%);stop-opacity:1;"/>
<stop offset="1" style="stop-color:rgb(81.176471%,81.176471%,81.176471%);stop-opacity:1;"/>
</linearGradient>
<linearGradient id="linear1" gradientUnits="userSpaceOnUse" x1="-296" y1="-60" x2="198" y2="-58" gradientTransform="matrix(0.0585297,-0.00926996,0.00926996,0.0585297,33.555975,29.738938)">
<stop offset="0" style="stop-color:rgb(92.156863%,95.686275%,98.823529%);stop-opacity:1;"/>
<stop offset="0.65" style="stop-color:rgb(86.666667%,88.235294%,89.803922%);stop-opacity:1;"/>
<stop offset="1" style="stop-color:rgb(81.176471%,81.176471%,81.176471%);stop-opacity:1;"/>
</linearGradient>
<linearGradient id="linear2" gradientUnits="userSpaceOnUse" x1="-271.536011" y1="175.151001" x2="-227.438004" y2="178.621002" gradientTransform="matrix(0.0585162,-0.00935492,0.00935492,0.0585162,32.622541,28.22876)">
<stop offset="0" style="stop-color:rgb(92.156863%,95.686275%,98.823529%);stop-opacity:1;"/>
<stop offset="0.65" style="stop-color:rgb(86.666667%,88.235294%,89.803922%);stop-opacity:1;"/>
<stop offset="1" style="stop-color:rgb(81.176471%,81.176471%,81.176471%);stop-opacity:1;"/>
</linearGradient>
<linearGradient id="linear3" gradientUnits="userSpaceOnUse" x1="-235.688004" y1="173.873993" x2="-283.121002" y2="160.699005" gradientTransform="matrix(-0.0581702,-0.011309,0.011309,-0.0581702,30.192972,38.003414)">
<stop offset="0" style="stop-color:rgb(92.156863%,95.686275%,98.823529%);stop-opacity:1;"/>
<stop offset="0.65" style="stop-color:rgb(86.666667%,88.235294%,89.803922%);stop-opacity:1;"/>
<stop offset="1" style="stop-color:rgb(81.176471%,81.176471%,81.176471%);stop-opacity:1;"/>
</linearGradient>
</defs>
<g id="surface1">
<g clip-path="url(#clip1)" clip-rule="nonzero">
<use xlink:href="#surface5" mask="url(#mask0)"/>
</g>
<path style="fill:none;stroke-width:2.146;stroke-linecap:butt;stroke-linejoin:miter;stroke:rgb(47.843137%,43.529412%,92.941176%);stroke-opacity:1;stroke-miterlimit:10;" d="M -5.383616 -5.358035 C -5.383616 -5.358035 5.368042 5.356668 5.368042 5.356668 " transform="matrix(-0.0489296,-0.117637,0.117637,-0.0489296,14.335637,18.827176)"/>
<path style="fill:none;stroke-width:2.146;stroke-linecap:butt;stroke-linejoin:miter;stroke:rgb(47.843137%,43.529412%,92.941176%);stroke-opacity:1;stroke-miterlimit:10;" d="M 5.378403 -5.366011 C 5.378403 -5.366011 -5.364609 5.373872 -5.364609 5.373872 " transform="matrix(-0.0489296,-0.117637,0.117637,-0.0489296,14.363156,18.827176)"/>
<path style="fill:none;stroke-width:2.146;stroke-linecap:butt;stroke-linejoin:miter;stroke:rgb(47.843137%,43.529412%,92.941176%);stroke-opacity:1;stroke-miterlimit:10;" d="M -5.36577 -5.353628 C -5.36577 -5.353628 5.35758 5.349301 5.35758 5.349301 " transform="matrix(-0.0489296,-0.117637,0.117637,-0.0489296,51.746148,42.419334)"/>
<path style="fill:none;stroke-width:2.146;stroke-linecap:butt;stroke-linejoin:miter;stroke:rgb(47.843137%,43.529412%,92.941176%);stroke-opacity:1;stroke-miterlimit:10;" d="M 5.367943 -5.373386 C 5.367943 -5.373386 -5.375068 5.366498 -5.375068 5.366498 " transform="matrix(-0.0489296,-0.117637,0.117637,-0.0489296,51.773668,42.419334)"/>
<path style="fill:none;stroke-width:1.9;stroke-linecap:butt;stroke-linejoin:miter;stroke:rgb(14.117647%,14.117647%,67.45098%);stroke-opacity:1;stroke-miterlimit:10;" d="M -4.757819 -4.759208 C -4.757819 -4.759208 4.750133 4.767676 4.750133 4.767676 " transform="matrix(-0.0489296,0.117637,-0.117637,-0.0489296,10.398748,34.467456)"/>
<path style="fill:none;stroke-width:1.9;stroke-linecap:butt;stroke-linejoin:miter;stroke:rgb(14.117647%,14.117647%,67.45098%);stroke-opacity:1;stroke-miterlimit:10;" d="M 4.742647 -4.750581 C 4.742647 -4.750581 -4.755929 4.745597 -4.755929 4.745597 " transform="matrix(-0.0489296,0.117637,-0.117637,-0.0489296,10.42321,34.467456)"/>
<g clip-path="url(#clip3)" clip-rule="nonzero">
<path style="fill:none;stroke-width:2.146;stroke-linecap:butt;stroke-linejoin:miter;stroke:rgb(47.843137%,43.529412%,92.941176%);stroke-opacity:1;stroke-miterlimit:10;" d="M 7.764293 0.0085869 C 7.764293 4.280321 4.284509 7.760105 -0.0112234 7.760105 C -4.282958 7.760105 -7.762741 4.280321 -7.762741 0.0085869 C -7.762741 -4.287146 -4.282958 -7.76693 -0.0112234 -7.76693 C 4.284509 -7.76693 7.764293 -4.287146 7.764293 0.0085869 Z M 7.764293 0.0085869 " transform="matrix(0.162771,0,0,0.162771,8.161983,23.822821)"/>
</g>
<path style="fill:none;stroke-width:1.9;stroke-linecap:butt;stroke-linejoin:miter;stroke:rgb(14.117647%,14.117647%,67.45098%);stroke-opacity:1;stroke-miterlimit:10;" d="M 1.982722 0.00203788 C 1.982722 1.075121 1.093595 1.964247 -0.0101472 1.964247 C -1.08323 1.964247 -1.972356 1.075121 -1.972356 0.00203788 C -1.972356 -1.101705 -1.08323 -1.960171 -0.0101472 -1.960171 C 1.093595 -1.960171 1.982722 -1.101705 1.982722 0.00203788 Z M 1.982722 0.00203788 " transform="matrix(0.127407,0,0,0.127407,52.145824,20.691147)"/>
<path style="fill:none;stroke-width:1.9;stroke-linecap:butt;stroke-linejoin:miter;stroke:rgb(14.117647%,14.117647%,67.45098%);stroke-opacity:1;stroke-miterlimit:10;" d="M 1.96576 -0.00694805 C 1.96576 1.096795 1.076634 1.985921 0.00355083 1.985921 C -1.100192 1.985921 -1.989318 1.096795 -1.989318 -0.00694805 C -1.989318 -1.080031 -1.100192 -1.969157 0.00355083 -1.969157 C 1.076634 -1.969157 1.96576 -1.080031 1.96576 -0.00694805 Z M 1.96576 -0.00694805 " transform="matrix(0.127407,0,0,0.127407,27.894079,12.305573)"/>
<path style=" stroke:none;fill-rule:nonzero;fill:rgb(88.235294%,88.235294%,88.235294%);fill-opacity:1;" d="M 13.46875 21.714844 C 15.257812 21.429688 17 23.007812 17.355469 25.238281 C 17.707031 27.464844 16.539062 29.507812 14.746094 29.789062 C 12.953125 30.074219 11.210938 28.496094 10.859375 26.265625 C 10.503906 24.039062 11.675781 21.996094 13.46875 21.714844 Z M 13.46875 21.714844 "/>
<path style=" stroke:none;fill-rule:nonzero;fill:rgb(88.235294%,88.235294%,88.235294%);fill-opacity:1;" d="M 46.769531 16.4375 C 48.5625 16.15625 50.304688 17.734375 50.660156 19.960938 C 51.011719 22.191406 49.84375 24.230469 48.050781 24.515625 C 46.257812 24.800781 44.515625 23.21875 44.160156 20.992188 C 43.808594 18.761719 44.976562 16.722656 46.769531 16.4375 Z M 46.769531 16.4375 "/>
<path style=" stroke:none;fill-rule:nonzero;fill:url(#linear0);" d="M 32.058594 30.59375 C 31.324219 30.59375 23.941406 29.941406 23.011719 34.855469 C 22.527344 37.421875 22.875 42.625 25.820312 45.546875 C 28.105469 47.816406 31.398438 47.703125 32.179688 47.71875 C 32.980469 47.738281 36.84375 47.875 39.082031 45.617188 C 41.796875 42.871094 42.429688 37.410156 41.820312 34.75 C 40.921875 30.816406 35.082031 30.59375 32.058594 30.59375 Z M 32.058594 30.59375 "/>
<path style="fill-rule:nonzero;fill:rgb(81.960784%,81.960784%,81.960784%);fill-opacity:1;stroke-width:1;stroke-linecap:butt;stroke-linejoin:miter;stroke:rgb(57.647059%,57.647059%,57.647059%);stroke-opacity:1;stroke-miterlimit:4;" d="M -0.0175781 -32.487183 C 62.67041 -32.487183 113.493164 -17.919312 113.493164 0.010376 C 113.493164 17.940063 62.67041 32.507935 -0.0175781 32.507935 C -62.639648 32.507935 -113.52832 17.940063 -113.52832 0.010376 C -113.52832 -17.919312 -62.639648 -32.487183 -0.0175781 -32.487183 Z M -0.0175781 -32.487183 " transform="matrix(0.0592593,0,0,0.0592593,32.266667,32.815791)"/>
<path style=" stroke:none;fill-rule:nonzero;fill:url(#linear1);" d="M 45.625 14.269531 C 37.03125 4.710938 18.03125 9.757812 14.914062 19.613281 C 13.777344 23.203125 12.429688 32.726562 23.265625 32.207031 C 25.3125 32.109375 41.898438 29.378906 41.898438 29.378906 C 41.898438 29.378906 46.226562 28.449219 47.835938 25.050781 C 49.050781 22.488281 48.683594 17.671875 45.625 14.269531 Z M 45.625 14.269531 "/>
<path style=" stroke:none;fill-rule:nonzero;fill:rgb(13.333333%,13.333333%,13.333333%);fill-opacity:1;" d="M 45.871094 18.878906 C 45.871094 18.878906 46.183594 20.867188 46.183594 20.867188 C 46.511719 22.9375 45.054688 24.886719 42.929688 25.222656 C 42.929688 25.222656 24.101562 28.207031 24.101562 28.207031 C 21.980469 28.542969 19.988281 27.136719 19.660156 25.070312 C 19.660156 25.070312 19.34375 23.078125 19.34375 23.078125 C 19.019531 21.011719 20.476562 19.058594 22.601562 18.722656 C 22.601562 18.722656 41.425781 15.742188 41.425781 15.742188 C 43.550781 15.40625 45.542969 16.8125 45.871094 18.878906 Z M 45.871094 18.878906 "/>
<path style=" stroke:none;fill-rule:nonzero;fill:rgb(22.745098%,22.745098%,22.745098%);fill-opacity:1;" d="M 34.417969 16.890625 C 34.390625 17.226562 35.773438 22.992188 31.5625 26.898438 C 31.5625 26.898438 43.707031 24.949219 43.707031 24.949219 C 43.707031 24.949219 46.59375 24.613281 46.003906 19.757812 C 45.707031 17.316406 44.449219 15.351562 41.894531 15.699219 C 39.339844 16.042969 34.421875 16.921875 34.417969 16.890625 Z M 34.417969 16.890625 "/>
<path style=" stroke:none;fill-rule:nonzero;fill:rgb(12.156863%,47.843137%,100%);fill-opacity:1;" d="M 25.257812 21.363281 C 25.257812 21.363281 25.785156 24.699219 25.785156 24.699219 C 25.878906 25.28125 25.480469 25.828125 24.898438 25.917969 C 24.320312 26.011719 23.773438 25.613281 23.679688 25.03125 C 23.679688 25.03125 23.152344 21.695312 23.152344 21.695312 C 23.058594 21.113281 23.457031 20.566406 24.039062 20.476562 C 24.621094 20.382812 25.167969 20.78125 25.257812 21.363281 Z M 25.257812 21.363281 "/>
<path style=" stroke:none;fill-rule:nonzero;fill:rgb(12.156863%,47.843137%,100%);fill-opacity:1;" d="M 41.53125 18.785156 C 41.53125 18.785156 42.058594 22.121094 42.058594 22.121094 C 42.148438 22.703125 41.753906 23.25 41.171875 23.34375 C 40.589844 23.433594 40.042969 23.035156 39.953125 22.457031 C 39.953125 22.457031 39.421875 19.121094 39.421875 19.121094 C 39.332031 18.539062 39.726562 17.992188 40.308594 17.898438 C 40.890625 17.808594 41.4375 18.203125 41.53125 18.785156 Z M 41.53125 18.785156 "/>
<path style=" stroke:none;fill-rule:nonzero;fill:url(#linear2);" d="M 19.214844 35.382812 C 16.445312 40.207031 18.460938 45.136719 19.183594 46.640625 C 19.589844 47.488281 20.777344 47.609375 21.347656 47.152344 C 21.792969 46.792969 21.6875 45.957031 21.664062 45.644531 C 21.21875 39.472656 21.636719 36.464844 21.769531 35.785156 C 21.828125 35.46875 21.570312 34.746094 21.019531 34.621094 C 20.390625 34.480469 19.441406 34.984375 19.214844 35.382812 Z M 19.214844 35.382812 "/>
<path style=" stroke:none;fill-rule:nonzero;fill:url(#linear3);" d="M 45.242188 35.886719 C 49.5 32.308594 49.296875 26.988281 49.136719 25.328125 C 49.046875 24.394531 47.972656 23.867188 47.277344 24.101562 C 46.738281 24.285156 46.550781 25.109375 46.464844 25.410156 C 44.765625 31.359375 43.339844 34.039062 42.980469 34.632812 C 42.816406 34.910156 42.8125 35.679688 43.285156 35.984375 C 43.828125 36.332031 44.890625 36.183594 45.242188 35.886719 Z M 45.242188 35.886719 "/>
<path style=" stroke:none;fill-rule:nonzero;fill:rgb(14.117647%,14.117647%,67.45098%);fill-opacity:1;" d="M 11.625 10.027344 C 11.625 10.027344 11.628906 10.027344 11.628906 10.027344 C 11.632812 10.042969 11.640625 10.0625 11.644531 10.078125 C 11.789062 10.421875 12.1875 10.585938 12.53125 10.441406 C 12.875 10.300781 13.039062 9.902344 12.894531 9.558594 C 12.886719 9.542969 12.878906 9.523438 12.871094 9.511719 C 12.710938 9.199219 12.332031 9.0625 12.011719 9.195312 C 11.6875 9.328125 11.519531 9.695312 11.625 10.027344 Z M 11.625 10.027344 "/>
<path style=" stroke:none;fill-rule:nonzero;fill:rgb(14.117647%,14.117647%,67.45098%);fill-opacity:1;" d="M 11.339844 7.582031 C 11.230469 7.625 11.148438 7.710938 11.101562 7.816406 C 11.058594 7.925781 11.058594 8.042969 11.101562 8.152344 C 11.101562 8.152344 11.199219 8.382812 11.199219 8.382812 C 11.199219 8.382812 11.132812 8.441406 11.132812 8.441406 C 11.042969 8.511719 10.960938 8.59375 10.886719 8.683594 C 10.886719 8.683594 10.832031 8.753906 10.832031 8.753906 C 10.832031 8.753906 10.601562 8.65625 10.601562 8.65625 C 10.378906 8.566406 10.121094 8.671875 10.027344 8.894531 C 9.984375 9.003906 9.984375 9.121094 10.03125 9.230469 C 10.074219 9.335938 10.160156 9.421875 10.265625 9.464844 C 10.265625 9.464844 10.5 9.5625 10.5 9.5625 C 10.5 9.5625 10.488281 9.648438 10.488281 9.648438 C 10.476562 9.765625 10.480469 9.878906 10.488281 9.996094 C 10.488281 9.996094 10.5 10.082031 10.5 10.082031 C 10.5 10.082031 10.265625 10.179688 10.265625 10.179688 C 10.078125 10.257812 9.964844 10.464844 10.007812 10.667969 C 10.011719 10.695312 10.019531 10.722656 10.03125 10.75 C 10.078125 10.859375 10.160156 10.941406 10.269531 10.988281 C 10.375 11.03125 10.496094 11.03125 10.601562 10.984375 C 10.601562 10.984375 10.835938 10.890625 10.835938 10.890625 C 10.835938 10.890625 10.890625 10.957031 10.890625 10.957031 C 10.964844 11.046875 11.046875 11.128906 11.136719 11.203125 C 11.136719 11.203125 11.203125 11.257812 11.203125 11.257812 C 11.203125 11.257812 11.109375 11.488281 11.109375 11.488281 C 11.015625 11.710938 11.125 11.96875 11.347656 12.0625 C 11.453125 12.105469 11.574219 12.105469 11.679688 12.058594 C 11.789062 12.015625 11.871094 11.929688 11.917969 11.824219 C 11.917969 11.824219 12.011719 11.589844 12.011719 11.589844 C 12.011719 11.589844 12.101562 11.601562 12.101562 11.601562 C 12.214844 11.609375 12.332031 11.609375 12.445312 11.601562 C 12.445312 11.601562 12.535156 11.589844 12.535156 11.589844 C 12.535156 11.589844 12.628906 11.820312 12.628906 11.820312 C 12.722656 12.042969 12.980469 12.152344 13.203125 12.058594 C 13.308594 12.011719 13.394531 11.929688 13.4375 11.820312 C 13.480469 11.714844 13.480469 11.59375 13.4375 11.484375 C 13.4375 11.484375 13.339844 11.253906 13.339844 11.253906 C 13.339844 11.253906 13.410156 11.199219 13.410156 11.199219 C 13.496094 11.125 13.582031 11.042969 13.652344 10.953125 C 13.652344 10.953125 13.710938 10.886719 13.710938 10.886719 C 13.710938 10.886719 13.941406 10.980469 13.941406 10.980469 C 14.164062 11.074219 14.417969 10.964844 14.511719 10.742188 C 14.554688 10.636719 14.554688 10.515625 14.511719 10.410156 C 14.464844 10.300781 14.382812 10.21875 14.273438 10.171875 C 14.273438 10.171875 14.042969 10.078125 14.042969 10.078125 C 14.042969 10.078125 14.050781 9.988281 14.050781 9.988281 C 14.0625 9.875 14.0625 9.757812 14.050781 9.644531 C 14.050781 9.644531 14.042969 9.554688 14.042969 9.554688 C 14.042969 9.554688 14.273438 9.460938 14.273438 9.460938 C 14.496094 9.367188 14.601562 9.109375 14.507812 8.886719 C 14.496094 8.863281 14.484375 8.835938 14.46875 8.8125 C 14.46875 8.8125 14.460938 8.800781 14.460938 8.800781 C 14.414062 8.734375 14.347656 8.683594 14.273438 8.652344 C 14.164062 8.609375 14.042969 8.609375 13.9375 8.652344 C 13.9375 8.652344 13.707031 8.75 13.707031 8.75 C 13.707031 8.75 13.648438 8.679688 13.648438 8.679688 C 13.578125 8.589844 13.496094 8.507812 13.40625 8.4375 C 13.40625 8.4375 13.335938 8.378906 13.335938 8.378906 C 13.335938 8.378906 13.433594 8.148438 13.433594 8.148438 C 13.476562 8.042969 13.476562 7.921875 13.429688 7.816406 C 13.386719 7.707031 13.300781 7.621094 13.195312 7.578125 C 13.085938 7.535156 12.96875 7.535156 12.859375 7.578125 C 12.753906 7.625 12.667969 7.707031 12.625 7.816406 C 12.625 7.816406 12.527344 8.046875 12.527344 8.046875 C 12.527344 8.046875 12.441406 8.039062 12.441406 8.039062 C 12.324219 8.027344 12.210938 8.027344 12.09375 8.039062 C 12.09375 8.039062 12.007812 8.046875 12.007812 8.046875 C 12.007812 8.046875 11.910156 7.816406 11.910156 7.816406 C 11.816406 7.59375 11.5625 7.488281 11.339844 7.582031 Z M 12.695312 8.664062 C 12.984375 8.769531 13.222656 8.980469 13.363281 9.253906 C 13.378906 9.28125 13.394531 9.3125 13.40625 9.347656 C 13.667969 9.972656 13.371094 10.695312 12.742188 10.957031 C 12.117188 11.21875 11.394531 10.917969 11.132812 10.292969 C 11.121094 10.261719 11.105469 10.226562 11.097656 10.195312 C 11.003906 9.902344 11.019531 9.585938 11.148438 9.304688 C 11.28125 9.023438 11.511719 8.800781 11.796875 8.683594 C 12.085938 8.5625 12.402344 8.554688 12.695312 8.664062 Z M 12.695312 8.664062 "/>
<path style=" stroke:none;fill-rule:nonzero;fill:rgb(14.117647%,14.117647%,67.45098%);fill-opacity:1;" d="M 56.292969 29.644531 C 56.292969 29.644531 56.292969 29.640625 56.292969 29.640625 C 56.285156 29.632812 56.277344 29.625 56.269531 29.617188 C 56.09375 29.449219 55.8125 29.453125 55.644531 29.632812 C 55.476562 29.808594 55.484375 30.085938 55.660156 30.253906 C 55.667969 30.261719 55.679688 30.269531 55.6875 30.277344 C 55.863281 30.421875 56.125 30.40625 56.285156 30.238281 C 56.441406 30.074219 56.445312 29.8125 56.292969 29.644531 Z M 56.292969 29.644531 "/>
<path style=" stroke:none;fill-rule:nonzero;fill:rgb(14.117647%,14.117647%,67.45098%);fill-opacity:1;" d="M 57.109375 31.027344 C 57.164062 30.972656 57.191406 30.898438 57.1875 30.824219 C 57.1875 30.746094 57.15625 30.675781 57.101562 30.625 C 57.101562 30.625 56.980469 30.511719 56.980469 30.511719 C 56.980469 30.511719 57.007812 30.460938 57.007812 30.460938 C 57.042969 30.390625 57.070312 30.320312 57.089844 30.25 C 57.089844 30.25 57.105469 30.195312 57.105469 30.195312 C 57.105469 30.195312 57.269531 30.191406 57.269531 30.191406 C 57.425781 30.1875 57.550781 30.054688 57.546875 29.898438 C 57.542969 29.820312 57.511719 29.75 57.457031 29.699219 C 57.402344 29.644531 57.332031 29.617188 57.253906 29.621094 C 57.253906 29.621094 57.089844 29.625 57.089844 29.625 C 57.089844 29.625 57.074219 29.566406 57.074219 29.566406 C 57.050781 29.496094 57.019531 29.425781 56.980469 29.363281 C 56.980469 29.363281 56.953125 29.3125 56.953125 29.3125 C 56.953125 29.3125 57.066406 29.195312 57.066406 29.195312 C 57.160156 29.09375 57.171875 28.945312 57.09375 28.832031 C 57.082031 28.816406 57.070312 28.804688 57.058594 28.789062 C 57 28.738281 56.929688 28.710938 56.851562 28.710938 C 56.777344 28.714844 56.707031 28.746094 56.652344 28.800781 C 56.652344 28.800781 56.539062 28.917969 56.539062 28.917969 C 56.539062 28.917969 56.488281 28.890625 56.488281 28.890625 C 56.421875 28.859375 56.351562 28.832031 56.277344 28.808594 C 56.277344 28.808594 56.222656 28.796875 56.222656 28.796875 C 56.222656 28.796875 56.21875 28.632812 56.21875 28.632812 C 56.214844 28.472656 56.085938 28.347656 55.925781 28.351562 C 55.851562 28.355469 55.78125 28.386719 55.726562 28.441406 C 55.675781 28.496094 55.648438 28.570312 55.648438 28.644531 C 55.648438 28.644531 55.652344 28.808594 55.652344 28.808594 C 55.652344 28.808594 55.597656 28.828125 55.597656 28.828125 C 55.527344 28.851562 55.457031 28.878906 55.390625 28.917969 C 55.390625 28.917969 55.339844 28.945312 55.339844 28.945312 C 55.339844 28.945312 55.222656 28.832031 55.222656 28.832031 C 55.109375 28.726562 54.929688 28.730469 54.820312 28.84375 C 54.765625 28.898438 54.738281 28.96875 54.742188 29.046875 C 54.742188 29.125 54.773438 29.195312 54.828125 29.246094 C 54.828125 29.246094 54.945312 29.359375 54.945312 29.359375 C 54.945312 29.359375 54.921875 29.410156 54.921875 29.410156 C 54.886719 29.476562 54.859375 29.546875 54.839844 29.621094 C 54.839844 29.621094 54.824219 29.675781 54.824219 29.675781 C 54.824219 29.675781 54.660156 29.679688 54.660156 29.679688 C 54.503906 29.683594 54.378906 29.816406 54.382812 29.972656 C 54.382812 30.050781 54.414062 30.121094 54.46875 30.171875 C 54.527344 30.226562 54.597656 30.253906 54.675781 30.25 C 54.675781 30.25 54.839844 30.246094 54.839844 30.246094 C 54.839844 30.246094 54.855469 30.300781 54.855469 30.300781 C 54.878906 30.375 54.910156 30.441406 54.945312 30.507812 C 54.945312 30.507812 54.976562 30.558594 54.976562 30.558594 C 54.976562 30.558594 54.863281 30.675781 54.863281 30.675781 C 54.753906 30.789062 54.757812 30.972656 54.871094 31.082031 C 54.886719 31.09375 54.898438 31.105469 54.917969 31.113281 C 54.917969 31.113281 54.921875 31.121094 54.921875 31.121094 C 54.96875 31.148438 55.023438 31.160156 55.074219 31.160156 C 55.152344 31.15625 55.222656 31.125 55.277344 31.070312 C 55.277344 31.070312 55.386719 30.953125 55.386719 30.953125 C 55.386719 30.953125 55.441406 30.980469 55.441406 30.980469 C 55.507812 31.011719 55.578125 31.039062 55.652344 31.058594 C 55.652344 31.058594 55.707031 31.074219 55.707031 31.074219 C 55.707031 31.074219 55.710938 31.238281 55.710938 31.238281 C 55.710938 31.316406 55.742188 31.386719 55.796875 31.4375 C 55.855469 31.492188 55.925781 31.519531 56.003906 31.515625 C 56.078125 31.515625 56.148438 31.484375 56.203125 31.429688 C 56.253906 31.375 56.28125 31.300781 56.28125 31.226562 C 56.28125 31.226562 56.277344 31.0625 56.277344 31.0625 C 56.277344 31.0625 56.332031 31.042969 56.332031 31.042969 C 56.402344 31.019531 56.472656 30.988281 56.539062 30.953125 C 56.539062 30.953125 56.589844 30.925781 56.589844 30.925781 C 56.589844 30.925781 56.707031 31.035156 56.707031 31.035156 C 56.820312 31.144531 57 31.140625 57.109375 31.027344 Z M 56.015625 30.738281 C 55.8125 30.75 55.617188 30.6875 55.460938 30.5625 C 55.441406 30.546875 55.425781 30.53125 55.410156 30.515625 C 55.089844 30.210938 55.078125 29.699219 55.382812 29.378906 C 55.6875 29.058594 56.199219 29.046875 56.519531 29.351562 C 56.535156 29.367188 56.550781 29.386719 56.566406 29.402344 C 56.699219 29.550781 56.773438 29.746094 56.769531 29.949219 C 56.765625 30.152344 56.6875 30.34375 56.546875 30.492188 C 56.40625 30.636719 56.21875 30.726562 56.015625 30.738281 Z M 56.015625 30.738281 "/>
</g>
</svg>
